<?xml version="1.0" encoding="utf-8"?>
<!-- Generator: Adobe Illustrator 22.0.0, SVG Export Plug-In . SVG Version: 6.00 Build 0)  -->
<svg version="1.1" id="Layer_1" xmlns="http://www.w3.org/2000/svg" xmlns:xlink="http://www.w3.org/1999/xlink" x="0px" y="0px"
	 viewBox="0 0 610.6 612" style="enable-background:new 0 0 610.6 612;" xml:space="preserve">
<style type="text/css">
	.st0{fill:#E86226;}
</style>
<g>
	<g>
		<path class="st0" d="M521.2,90C402-29.3,208.7-29.3,89.4,90c-119.2,119.2-119.2,312.5,0,431.8C208.7,641,402,641,521.2,521.7
			C640.4,402.5,640.4,209.2,521.2,90z M158.6,377.5l-81.1-81.1c-3-3-4.6-6.8-4.6-11.2c0-4.5,1.5-8.2,4.6-11.2c3-3,6.8-4.6,11.2-4.6
			l141.4-0.2l-40.2-40.2c-3-3-4.6-6.8-4.6-11.2c0-4.5,1.5-8.2,4.6-11.2c3-3,6.8-4.6,11.2-4.6l141.4-0.2l-34.6-34.6
			c-3-3-4.6-6.8-4.6-11.2c0-4.4,1.5-8.2,4.6-11.2c3-3,6.8-4.6,11.2-4.6l134.9,0c4.4,0,8.2,1.5,11.2,4.6c3,3,4.6,6.8,4.6,11.2
			l0,134.9c0,4.4-1.5,8.2-4.6,11.2c-3,3-6.8,4.6-11.2,4.6c-4.5,0-8.2-1.5-11.2-4.6l-34.6-34.6L408,408.8c0,4.4-1.5,8.2-4.6,11.2
			c-3.1,3.1-6.8,4.6-11.2,4.6c-4.5,0-8.2-1.5-11.2-4.6l-40.2-40.2l-0.2,141.4c0,4.5-1.5,8.2-4.6,11.2c-3,3-6.8,4.6-11.2,4.6
			c-4.5,0-8.2-1.5-11.2-4.6l-81.2-81.2L158.6,377.5z"/>
	</g>
</g>
</svg>
